<svg width="287.013" height="69.435" viewBox="0 0 287.013 69.435" xmlns="http://www.w3.org/2000/svg"><g id="svgGroup" stroke-linecap="round" fill-rule="evenodd" font-size="9pt" stroke="#000" stroke-width="0.25mm" fill="#000" style="stroke:#000;stroke-width:0.25mm;fill:#000"><path d="M 106.445 69.434 L 106.445 0 L 115.869 0 L 138.281 27.393 L 160.693 0 L 170.117 0 L 170.117 69.434 L 159.814 69.434 L 159.814 17.529 L 142.578 38.428 L 134.033 38.428 L 116.748 17.529 L 116.748 69.434 L 106.445 69.434 Z M 0 69.434 L 24.854 0 L 37.695 0 L 62.549 69.434 L 51.563 69.434 L 43.994 48.535 L 24.609 48.535 L 28.32 38.281 L 40.283 38.281 L 31.299 13.477 L 10.986 69.434 L 0 69.434 Z M 182.324 51.172 L 182.324 37.012 A 17.38 17.38 0 0 1 184.79 27.881 A 18.802 18.802 0 0 1 191.406 21.313 A 17.636 17.636 0 0 1 200.586 18.848 L 228.809 18.848 L 228.809 69.434 L 218.506 69.434 L 218.506 29.15 L 200.586 29.15 A 7.695 7.695 0 0 0 195.007 31.434 A 9.426 9.426 0 0 0 194.971 31.47 A 7.626 7.626 0 0 0 192.628 37.004 A 9.344 9.344 0 0 0 192.627 37.109 L 192.627 51.074 Q 192.627 54.395 194.971 56.763 A 7.859 7.859 0 0 0 197.946 58.694 A 7.85 7.85 0 0 0 200.586 59.131 L 212.646 59.131 L 212.646 69.434 L 200.586 69.434 A 17.636 17.636 0 0 1 191.406 66.968 Q 187.256 64.502 184.79 60.352 A 17.636 17.636 0 0 1 182.324 51.172 Z M 240.527 69.434 L 240.527 29.102 A 9.784 9.784 0 0 1 243.461 21.968 A 12.004 12.004 0 0 1 243.579 21.851 A 10.096 10.096 0 0 1 250.894 18.848 A 12.228 12.228 0 0 1 250.928 18.848 L 268.75 18.848 A 17.636 17.636 0 0 1 277.93 21.313 Q 282.08 23.779 284.546 27.93 A 17.636 17.636 0 0 1 287.012 37.109 L 287.012 69.434 L 276.709 69.434 L 276.709 37.256 Q 276.709 33.838 274.39 31.445 A 7.543 7.543 0 0 0 268.957 29.055 A 9.088 9.088 0 0 0 268.75 29.053 L 250.83 29.053 L 250.83 69.434 L 240.527 69.434 Z M 70.361 69.434 L 70.361 33.008 A 13.364 13.364 0 0 1 72.339 25.879 Q 74.316 22.656 77.612 20.752 A 14.327 14.327 0 0 1 84.904 18.848 A 10.919 10.919 0 0 1 84.912 18.848 L 96.191 18.848 L 96.191 29.102 L 84.912 29.102 A 4.178 4.178 0 0 0 81.909 30.298 A 3.968 3.968 0 0 0 80.878 31.876 A 4.048 4.048 0 0 0 80.664 33.203 L 80.664 69.434 L 70.361 69.434 Z" vector-effect="non-scaling-stroke"/></g></svg>