<svg width="218.177" height="22.388" viewBox="0 0 218.177 22.388" xmlns="http://www.w3.org/2000/svg"><g id="svgGroup" stroke-linecap="round" fill-rule="evenodd" font-size="9pt" stroke="#000" stroke-width="0.25mm" fill="#000" style="stroke:#000;stroke-width:0.25mm;fill:#000"><path d="M 0 0.318 L 2.588 0.318 L 4.858 13.404 L 7.983 7.715 L 10.413 7.715 L 13.538 13.404 L 15.808 0.318 L 18.384 0.318 L 15.369 17.676 L 13.049 17.676 L 9.192 10.694 L 5.347 17.676 L 3.015 17.676 L 0 0.318 Z M 145.007 5.799 L 145.007 4.517 A 3.981 3.981 0 0 1 145.587 2.405 A 4.338 4.338 0 0 1 147.15 0.885 A 4.254 4.254 0 0 1 149.316 0.318 L 158.301 0.318 L 158.301 2.881 L 149.316 2.881 A 1.687 1.687 0 0 0 148.096 3.382 A 1.664 1.664 0 0 0 147.668 4.049 A 1.697 1.697 0 0 0 147.583 4.59 L 147.583 5.786 A 1.431 1.431 0 0 0 148.034 6.838 A 1.926 1.926 0 0 0 148.096 6.897 Q 148.608 7.361 149.316 7.361 L 154.846 7.361 A 4.344 4.344 0 0 1 156.485 7.667 A 4.14 4.14 0 0 1 157.019 7.929 Q 157.996 8.496 158.575 9.455 A 4.013 4.013 0 0 1 159.155 11.572 L 159.155 13.465 A 4.013 4.013 0 0 1 158.575 15.582 Q 157.996 16.541 157.019 17.108 Q 156.042 17.676 154.846 17.676 L 145.02 17.676 L 145.02 15.1 L 154.846 15.1 Q 155.566 15.1 156.073 14.618 A 1.62 1.62 0 0 0 156.468 14.049 A 1.581 1.581 0 0 0 156.58 13.452 L 156.58 11.585 A 1.564 1.564 0 0 0 156.104 10.444 A 1.981 1.981 0 0 0 156.073 10.413 A 1.703 1.703 0 0 0 154.846 9.925 L 149.316 9.925 Q 148.132 9.925 147.15 9.369 A 4.273 4.273 0 0 1 145.587 7.874 A 3.875 3.875 0 0 1 145.007 5.799 Z M 108.582 13.123 L 108.582 9.571 A 4.345 4.345 0 0 1 109.198 7.288 A 4.701 4.701 0 0 1 110.852 5.646 A 4.409 4.409 0 0 1 113.147 5.03 L 117.627 5.03 Q 118.689 5.03 119.446 5.786 Q 120.203 6.543 120.203 7.605 L 120.203 17.822 A 4.409 4.409 0 0 1 119.586 20.117 Q 118.97 21.155 117.932 21.771 A 4.409 4.409 0 0 1 115.637 22.388 L 109.399 22.388 L 109.399 19.812 L 115.601 19.812 A 2.018 2.018 0 0 0 116.534 19.597 A 2.051 2.051 0 0 0 117.035 19.232 A 1.931 1.931 0 0 0 117.527 18.466 A 1.962 1.962 0 0 0 117.627 17.835 L 117.627 7.605 L 113.147 7.605 A 1.924 1.924 0 0 0 111.752 8.176 A 2.352 2.352 0 0 0 111.743 8.185 A 1.906 1.906 0 0 0 111.157 9.569 A 2.335 2.335 0 0 0 111.157 9.595 L 111.157 13.098 A 1.934 1.934 0 0 0 111.734 14.499 A 2.42 2.42 0 0 0 111.743 14.508 A 1.965 1.965 0 0 0 112.487 14.991 A 1.963 1.963 0 0 0 113.147 15.1 L 116.162 15.1 L 116.162 17.676 L 113.147 17.676 A 4.409 4.409 0 0 1 110.852 17.06 A 4.684 4.684 0 0 1 109.198 15.412 A 4.377 4.377 0 0 1 108.582 13.123 Z M 35.01 15.1 L 35.01 0.318 L 37.585 0.318 L 37.585 15.1 L 42.065 15.1 A 1.907 1.907 0 0 0 43.457 14.533 A 2.289 2.289 0 0 0 43.475 14.514 Q 44.055 13.928 44.055 13.111 L 44.055 9.619 A 1.96 1.96 0 0 0 43.478 8.2 A 2.302 2.302 0 0 0 43.475 8.197 A 1.896 1.896 0 0 0 42.104 7.606 A 2.303 2.303 0 0 0 42.065 7.605 L 39.05 7.605 L 39.05 5.03 L 42.065 5.03 A 4.409 4.409 0 0 1 44.36 5.646 Q 45.398 6.262 46.014 7.3 A 4.409 4.409 0 0 1 46.631 9.595 L 46.631 13.135 A 4.355 4.355 0 0 1 46.014 15.412 A 4.684 4.684 0 0 1 44.36 17.06 A 4.409 4.409 0 0 1 42.065 17.676 L 37.585 17.676 Q 36.523 17.676 35.767 16.919 Q 35.01 16.162 35.01 15.1 Z M 186.34 13.135 L 186.34 9.595 A 4.409 4.409 0 0 1 186.957 7.3 Q 187.573 6.262 188.611 5.646 A 4.409 4.409 0 0 1 190.906 5.03 L 193.921 5.03 L 193.921 7.605 L 190.906 7.605 A 1.902 1.902 0 0 0 189.521 8.179 A 2.369 2.369 0 0 0 189.502 8.197 A 1.948 1.948 0 0 0 188.916 9.606 A 2.355 2.355 0 0 0 188.916 9.619 L 188.916 13.111 A 1.912 1.912 0 0 0 189.484 14.496 A 2.354 2.354 0 0 0 189.502 14.514 A 1.954 1.954 0 0 0 190.302 15.011 A 1.999 1.999 0 0 0 190.906 15.1 L 195.386 15.1 L 195.386 0.318 L 197.961 0.318 L 197.961 15.1 Q 197.961 16.162 197.205 16.919 Q 196.448 17.676 195.386 17.676 L 190.906 17.676 A 4.409 4.409 0 0 1 188.611 17.06 A 4.684 4.684 0 0 1 186.957 15.412 A 4.355 4.355 0 0 1 186.34 13.135 Z M 20.703 14.112 L 20.703 7.642 A 2.463 2.463 0 0 1 21.448 5.84 A 3.049 3.049 0 0 1 21.497 5.792 A 2.65 2.65 0 0 1 23.401 5.03 L 28.674 5.03 A 3.567 3.567 0 0 1 30.108 5.316 A 3.448 3.448 0 0 1 30.511 5.524 Q 31.335 6.018 31.83 6.854 Q 32.324 7.691 32.324 8.704 L 32.324 9.058 A 3.48 3.48 0 0 1 31.83 10.883 Q 31.335 11.707 30.511 12.201 A 3.496 3.496 0 0 1 28.706 12.695 A 4.131 4.131 0 0 1 28.674 12.696 L 24.744 12.696 L 24.744 10.132 L 28.699 10.132 A 1.011 1.011 0 0 0 29.435 9.829 A 1.248 1.248 0 0 0 29.449 9.815 A 1.057 1.057 0 0 0 29.761 9.049 A 1.295 1.295 0 0 0 29.761 9.046 L 29.761 8.704 A 1.139 1.139 0 0 0 29.678 8.264 A 1.069 1.069 0 0 0 29.449 7.923 A 1.034 1.034 0 0 0 29.029 7.656 A 1.059 1.059 0 0 0 28.699 7.605 L 23.279 7.605 L 23.279 14.099 A 0.986 0.986 0 0 0 23.56 14.807 A 0.928 0.928 0 0 0 23.942 15.054 A 0.958 0.958 0 0 0 24.243 15.1 L 31.433 15.1 L 31.433 17.676 L 24.243 17.676 A 3.405 3.405 0 0 1 22.461 17.194 A 3.617 3.617 0 0 1 21.179 15.9 A 3.471 3.471 0 0 1 20.703 14.112 Z M 74.194 14.112 L 74.194 7.642 A 2.463 2.463 0 0 1 74.939 5.84 A 3.049 3.049 0 0 1 74.988 5.792 A 2.65 2.65 0 0 1 76.892 5.03 L 82.166 5.03 A 3.567 3.567 0 0 1 83.599 5.316 A 3.448 3.448 0 0 1 84.003 5.524 Q 84.827 6.018 85.321 6.854 Q 85.815 7.691 85.815 8.704 L 85.815 9.058 A 3.48 3.48 0 0 1 85.321 10.883 Q 84.827 11.707 84.003 12.201 A 3.496 3.496 0 0 1 82.197 12.695 A 4.131 4.131 0 0 1 82.166 12.696 L 78.235 12.696 L 78.235 10.132 L 82.19 10.132 A 1.011 1.011 0 0 0 82.926 9.829 A 1.248 1.248 0 0 0 82.941 9.815 A 1.057 1.057 0 0 0 83.252 9.049 A 1.295 1.295 0 0 0 83.252 9.046 L 83.252 8.704 A 1.139 1.139 0 0 0 83.169 8.264 A 1.069 1.069 0 0 0 82.941 7.923 A 1.034 1.034 0 0 0 82.52 7.656 A 1.059 1.059 0 0 0 82.19 7.605 L 76.77 7.605 L 76.77 14.099 A 0.986 0.986 0 0 0 77.051 14.807 A 0.928 0.928 0 0 0 77.433 15.054 A 0.958 0.958 0 0 0 77.734 15.1 L 84.924 15.1 L 84.924 17.676 L 77.734 17.676 A 3.405 3.405 0 0 1 75.952 17.194 A 3.617 3.617 0 0 1 74.67 15.9 A 3.471 3.471 0 0 1 74.194 14.112 Z M 88.501 8.887 L 88.501 8.582 A 3.363 3.363 0 0 1 88.995 6.787 A 3.685 3.685 0 0 1 90.314 5.506 A 3.582 3.582 0 0 1 92.137 5.03 L 92.139 5.03 L 99.561 5.03 L 99.561 7.605 L 92.139 7.605 A 1.069 1.069 0 0 0 91.388 7.892 A 0.988 0.988 0 0 0 91.167 8.181 A 0.893 0.893 0 0 0 91.077 8.582 L 91.077 8.887 A 0.932 0.932 0 0 0 91.364 9.572 A 1.186 1.186 0 0 0 91.388 9.595 Q 91.699 9.888 92.139 9.888 L 96.753 9.888 A 3.547 3.547 0 0 1 98.578 10.37 A 3.685 3.685 0 0 1 99.89 11.658 A 3.395 3.395 0 0 1 100.378 13.452 L 100.378 14.112 A 3.404 3.404 0 0 1 99.89 15.9 A 3.669 3.669 0 0 1 98.578 17.194 A 3.547 3.547 0 0 1 96.753 17.676 L 89.075 17.676 L 89.075 15.1 L 96.753 15.1 Q 97.192 15.1 97.504 14.807 A 0.99 0.99 0 0 0 97.74 14.478 A 0.946 0.946 0 0 0 97.815 14.099 L 97.815 13.465 A 0.947 0.947 0 0 0 97.528 12.767 A 1.154 1.154 0 0 0 97.504 12.744 Q 97.192 12.451 96.753 12.451 L 92.139 12.451 A 3.547 3.547 0 0 1 90.314 11.969 A 3.719 3.719 0 0 1 88.995 10.675 Q 88.501 9.864 88.501 8.887 Z M 123.132 17.676 L 123.132 7.593 A 2.446 2.446 0 0 1 123.866 5.81 A 2.999 2.999 0 0 1 123.895 5.78 Q 124.658 5.03 125.732 5.03 L 130.188 5.03 A 4.409 4.409 0 0 1 132.483 5.646 Q 133.521 6.262 134.137 7.3 A 4.409 4.409 0 0 1 134.753 9.595 L 134.753 17.676 L 132.178 17.676 L 132.178 9.632 A 2.01 2.01 0 0 0 131.598 8.179 A 1.886 1.886 0 0 0 130.24 7.581 A 2.272 2.272 0 0 0 130.188 7.581 L 125.708 7.581 L 125.708 17.676 L 123.132 17.676 Z M 171.912 13.111 L 171.912 5.03 L 174.487 5.03 L 174.487 13.074 A 2.056 2.056 0 0 0 174.688 13.987 A 2.058 2.058 0 0 0 175.073 14.527 A 1.973 1.973 0 0 0 175.783 15.002 A 1.935 1.935 0 0 0 176.477 15.125 L 180.957 15.125 L 180.957 5.03 L 183.533 5.03 L 183.533 15.113 A 2.457 2.457 0 0 1 182.799 16.902 A 2.993 2.993 0 0 1 182.776 16.925 Q 182.019 17.676 180.933 17.676 L 176.477 17.676 A 4.409 4.409 0 0 1 174.182 17.06 Q 173.145 16.443 172.528 15.405 A 4.409 4.409 0 0 1 171.912 13.111 Z M 57.129 17.676 L 57.129 0.318 L 66.357 0.318 A 4.773 4.773 0 0 1 68.829 0.977 Q 69.946 1.636 70.605 2.741 A 4.705 4.705 0 0 1 71.265 5.179 A 5.536 5.536 0 0 1 71.265 5.2 L 71.265 12.842 A 4.632 4.632 0 0 1 70.605 15.271 A 4.952 4.952 0 0 1 68.829 17.023 Q 67.712 17.676 66.357 17.676 L 57.129 17.676 Z M 161.475 7.605 L 161.475 5.03 L 163.123 5.03 L 163.123 0.318 L 165.698 0.318 L 165.698 5.03 L 169.592 5.03 L 169.592 7.605 L 165.698 7.605 L 165.698 14.087 A 0.932 0.932 0 0 0 165.992 14.773 A 1.242 1.242 0 0 0 166.022 14.801 A 1.102 1.102 0 0 0 166.797 15.1 L 169.592 15.1 L 169.592 17.676 L 166.76 17.676 A 3.547 3.547 0 0 1 164.935 17.194 A 3.719 3.719 0 0 1 163.617 15.9 A 3.394 3.394 0 0 1 163.123 14.099 L 163.123 7.605 L 161.475 7.605 Z M 206.287 13.111 L 206.287 9.595 A 4.409 4.409 0 0 1 206.903 7.3 Q 207.52 6.262 208.557 5.646 A 4.409 4.409 0 0 1 210.852 5.03 L 213.611 5.03 A 4.409 4.409 0 0 1 215.906 5.646 Q 216.943 6.262 217.56 7.3 A 4.409 4.409 0 0 1 218.176 9.595 L 218.176 13.111 A 4.409 4.409 0 0 1 217.56 15.405 Q 216.943 16.443 215.906 17.06 A 4.409 4.409 0 0 1 213.611 17.676 L 210.852 17.676 A 4.409 4.409 0 0 1 208.557 17.06 Q 207.52 16.443 206.903 15.405 A 4.409 4.409 0 0 1 206.287 13.111 Z M 59.705 15.1 L 66.357 15.1 A 2.342 2.342 0 0 0 67.414 14.864 A 2.356 2.356 0 0 0 68.018 14.429 Q 68.701 13.758 68.701 12.805 L 68.701 5.2 Q 68.701 4.236 68.018 3.559 A 2.269 2.269 0 0 0 66.373 2.881 A 2.816 2.816 0 0 0 66.357 2.881 L 59.705 2.881 L 59.705 15.1 Z M 103.186 17.676 L 103.186 5.03 L 105.774 5.03 L 105.774 17.676 L 103.186 17.676 Z M 200.891 17.676 L 200.891 5.03 L 203.479 5.03 L 203.479 17.676 L 200.891 17.676 Z M 208.862 9.619 L 208.862 13.086 A 1.948 1.948 0 0 0 209.439 14.499 A 2.382 2.382 0 0 0 209.448 14.508 A 1.965 1.965 0 0 0 210.192 14.991 A 1.963 1.963 0 0 0 210.852 15.1 L 213.611 15.1 A 1.896 1.896 0 0 0 214.993 14.536 A 2.291 2.291 0 0 0 215.021 14.508 A 1.96 1.96 0 0 0 215.601 13.089 A 2.626 2.626 0 0 0 215.601 13.086 L 215.601 9.619 A 1.96 1.96 0 0 0 215.023 8.2 A 2.302 2.302 0 0 0 215.021 8.197 A 1.896 1.896 0 0 0 213.65 7.606 A 2.303 2.303 0 0 0 213.611 7.605 L 210.852 7.605 A 1.902 1.902 0 0 0 209.467 8.179 A 2.369 2.369 0 0 0 209.448 8.197 A 1.948 1.948 0 0 0 208.862 9.606 A 2.355 2.355 0 0 0 208.862 9.619 Z M 103.343 0.479 A 1.528 1.528 0 0 0 102.893 1.587 A 1.861 1.861 0 0 0 102.893 1.608 A 1.528 1.528 0 0 0 103.357 2.71 A 1.836 1.836 0 0 0 103.371 2.725 A 1.528 1.528 0 0 0 104.48 3.174 A 1.861 1.861 0 0 0 104.501 3.174 A 1.528 1.528 0 0 0 105.603 2.71 A 1.836 1.836 0 0 0 105.617 2.696 A 1.528 1.528 0 0 0 106.067 1.587 A 1.861 1.861 0 0 0 106.067 1.567 A 1.528 1.528 0 0 0 105.603 0.464 A 1.836 1.836 0 0 0 105.588 0.45 A 1.528 1.528 0 0 0 104.48 0 A 1.861 1.861 0 0 0 104.459 0 A 1.528 1.528 0 0 0 103.357 0.464 A 1.836 1.836 0 0 0 103.343 0.479 Z M 201.048 0.479 A 1.528 1.528 0 0 0 200.598 1.587 A 1.861 1.861 0 0 0 200.598 1.608 A 1.528 1.528 0 0 0 201.062 2.71 A 1.836 1.836 0 0 0 201.077 2.725 A 1.528 1.528 0 0 0 202.185 3.174 A 1.861 1.861 0 0 0 202.206 3.174 A 1.528 1.528 0 0 0 203.308 2.71 A 1.836 1.836 0 0 0 203.322 2.696 A 1.528 1.528 0 0 0 203.772 1.587 A 1.861 1.861 0 0 0 203.772 1.567 A 1.528 1.528 0 0 0 203.308 0.464 A 1.836 1.836 0 0 0 203.294 0.45 A 1.528 1.528 0 0 0 202.185 0 A 1.861 1.861 0 0 0 202.165 0 A 1.528 1.528 0 0 0 201.062 0.464 A 1.836 1.836 0 0 0 201.048 0.479 Z" vector-effect="non-scaling-stroke"/></g></svg>