<svg id="Grupa_2" data-name="Grupa 2" xmlns="http://www.w3.org/2000/svg" width="614.625" height="107.375" viewBox="0 0 614.625 107.375">
  <defs>
    <style>
      .cls-1 {
        fill-rule: evenodd;
      }
    </style>
  </defs>
  <path id="Kształt_2_kopia_2" data-name="Kształt 2 kopia 2" class="cls-1" d="M207.065,886.423c0.386-.141.838-0.321,1.26-0.493s0.859-.356,1.288-0.541c0.858-.37,1.713-0.757,2.564-1.154q2.55-1.2,5.046-2.536l1.827,3.19q-2.5,1.519-5.077,2.913-1.293.693-2.609,1.352c-0.44.219-.882,0.436-1.33,0.647m12.107-10.9a104.859,104.859,0,0,0,9.372-6.37l1.713,2.117a107.575,107.575,0,0,1-9.268,7.077Zm13.776-9.945,2.145-1.884,2.146-1.9c1.42-1.273,2.817-2.565,4.172-3.9l1.152,1.086c-1.274,1.455-2.593,2.869-3.929,4.258l-2.013,2.068-1.01,1.027-1.04,1.02Zm12.538-11.7a73.46,73.46,0,0,0,6.525-9.392l0.27,0.145a74.179,74.179,0,0,1-5.873,9.946Zm-19.9,55.415a69.577,69.577,0,0,1-10.389-4.2,59.064,59.064,0,0,1-9.479-5.911,49.743,49.743,0,0,1-4.265-3.866,38.828,38.828,0,0,1-10.983-21.337c-0.288-1.9-.3-3.009-0.3-36.29v-34.33l39.773,0.038,39.773,0.038,0.04,33.893c0.044,36.589.069,35.277-.736,39.014a41.9,41.9,0,0,1-7.511,15.579,63.416,63.416,0,0,1-7.49,7.376,60.512,60.512,0,0,1-14.139,8c-2.088.842-9.728,3.442-10.037,3.416-0.091-.008-2.008-0.644-4.26-1.414m7.763-4.324a63.54,63.54,0,0,0,10.973-4.627,43.537,43.537,0,0,0,12.834-10.2,34.2,34.2,0,0,0,4.976-7.542,29.63,29.63,0,0,0,2.588-7.454l0.373-1.839V844.085c0-25.147-.041-32.634-0.182-32.774-0.286-.286-69.781-0.262-70.018.024-0.126.151-.171,8.755-0.169,32.46,0,34.742-.034,33.034.756,36.09a34.87,34.87,0,0,0,4.36,9.8,42.962,42.962,0,0,0,12.729,12.265,64.808,64.808,0,0,0,10.486,5.189,43.685,43.685,0,0,0,6.882,2.1,15.354,15.354,0,0,0,3.412-.895m-17.777-10.29c-1.916-1.017-5.683-3.735-5.683-4.1a0.916,0.916,0,0,1,.493-0.3c0.271-.1,1.619-0.805,3-1.569a94.233,94.233,0,0,0,21.994-16.755,82.894,82.894,0,0,0,18.076-27.485c1.223-3.071,3.117-8.974,2.876-8.963a9.133,9.133,0,0,0-.9,1.478c-4.413,8.162-11.652,16.748-19.98,23.7A98.588,98.588,0,0,1,209.5,880.633c-4.186,1.558-5.279,1.882-5.449,1.614a50.474,50.474,0,0,1-2.571-7.358,3.789,3.789,0,0,1,.644-0.13c2.91-.453,13-3.587,13-4.037a11.805,11.805,0,0,0-.813-1.466c-7.661-12.585-12.262-29.181-12.778-46.1a80.557,80.557,0,0,1,.188-8.954c0.035,0.034.4,1.434,0.82,3.112a74.778,74.778,0,0,0,15.222,30.433,102,102,0,0,0,9.19,9.2,55.794,55.794,0,0,0,5.836,4.374c0.355,0,4.245-2.933,6.521-4.916a73,73,0,0,0,17.673-22.547A79.98,79.98,0,0,0,263.53,815.6l0.357-1.517,0.1,1.062c0.157,1.756.141,8.624-.025,11.3-0.975,15.593-5.2,30.127-12.281,42.212a21.909,21.909,0,0,0-1.178,2.153c0.029,0.029.665,0.286,1.413,0.571a87,87,0,0,0,10.838,3.229c0.709,0.145,1.314.282,1.343,0.3,0.171,0.127-1.265,4.537-2.051,6.3l-0.384.859L260.8,882a34.267,34.267,0,0,1-14.322-4.789c-0.833-.47-0.886-0.48-1.041-0.212a59.68,59.68,0,0,1-6.923,7.279,6.859,6.859,0,0,0-.91.934c0.025,0.025,3.321,2.074,7.325,4.555s7.314,4.542,7.355,4.578c0.212,0.185-3.733,2.994-5.47,3.895l-0.845.439-1.506-.808a83.575,83.575,0,0,1-9.988-6.345,5.243,5.243,0,0,0-1.819-1.1,90.767,90.767,0,0,1-8.244,5.607c-1.523.909-4.621,2.6-4.747,2.6-0.035,0-.543-0.259-1.129-0.57h0ZM224.209,867a12.849,12.849,0,0,0,3.325-2.377l0.652-.673-1.158-.871a71.681,71.681,0,0,1-9.611-9.11,60.363,60.363,0,0,1-9.355-14.558c-1.187-2.8-1.277-2.579-.3.743,2.811,9.523,6.515,17.614,10.527,22.99a36.254,36.254,0,0,0,2.44,2.778c1.549,1.6,1.6,1.638,2.126,1.544a7.393,7.393,0,0,0,1.35-.466" transform="translate(-193.125 -806.719)"/>
  <path id="TOLLtrans_kopia" data-name="TOLLtrans kopia" class="cls-1" d="M350.9,818.289v-7.083H315.337v7.083h13.641v44.255h8.346V818.289H350.9ZM411.6,844.327a19.23,19.23,0,0,1-4.085,6.224,18.844,18.844,0,0,1-6.084,4.173,18.057,18.057,0,0,1-7.136,1.438A18.264,18.264,0,0,1,381,850.551a19.032,19.032,0,0,1-4.068-6.207,19.47,19.47,0,0,1-1.4-7.364,19.833,19.833,0,0,1,1.4-7.434A18.582,18.582,0,0,1,381,823.339a18.551,18.551,0,0,1,20.5-4.155,18.088,18.088,0,0,1,6.014,4.155,19.2,19.2,0,0,1,4.085,6.242,19.52,19.52,0,0,1,1.421,7.4A19.3,19.3,0,0,1,411.6,844.327Zm8.066-17.674a26.989,26.989,0,0,0-5.979-8.784,27.265,27.265,0,0,0-8.89-5.822,28.742,28.742,0,0,0-21.058,0,27.2,27.2,0,0,0-8.907,5.822,26.411,26.411,0,0,0-5.961,8.731,27.5,27.5,0,0,0,0,20.76,26.13,26.13,0,0,0,5.961,8.662,27.256,27.256,0,0,0,8.89,5.839,27.745,27.745,0,0,0,10.573,2.051,27.372,27.372,0,0,0,10.45-2.034,28.076,28.076,0,0,0,8.942-5.856A26.731,26.731,0,0,0,419.666,826.653Zm52.99,35.891v-7.469H454V811.206h-8.346v51.338h27Zm48.134,0v-7.469H502.134V811.206h-8.346v51.338h27Zm47.361-44.255v-7.083H532.593v7.083h13.641v44.255h8.346V818.289h13.571Zm29.092,0.071h1.508q6.312,0,8.644,1.735t2.332,5.979q0,3.929-2.174,5.471t-8.8,1.543h-1.508V818.36Zm0.421,21.215,17.078,22.969h9.433L606.5,839.19q5.822-.7,8.8-4.191t2.981-9.661a15.828,15.828,0,0,0-1.3-6.452,12.212,12.212,0,0,0-3.682-4.8,12.465,12.465,0,0,0-4.822-2.209,36.5,36.5,0,0,0-7.942-.666H588.9v51.338h7.82V839.575h0.947Zm61.915-8.907q0.49-1.227.964-2.682t0.895-3.139q0.49,1.788.981,3.244t0.947,2.577l5.26,11.713H654.319ZM686.2,862.544l-24.828-53.372-24.862,53.372h8.767l5.961-13.22h20.339l5.821,13.22h8.8Zm26.883,0v-35.7q1.122,1.578,2.367,3.016t2.577,2.735L751.3,864.543V811.206h-7.715V846.8q-1.507-1.893-2.875-3.4t-2.7-2.841L705.4,809.172v53.372h7.68ZM779.99,860.9a17.951,17.951,0,0,0,10.748,3.016q7.819,0,12.414-4.3t4.594-11.589a12.483,12.483,0,0,0-2.841-8.364q-2.841-3.348-10.45-6.856-0.386-.174-1.052-0.491-8.7-4-8.7-8.626a5.962,5.962,0,0,1,1.982-4.7,7.776,7.776,0,0,1,5.347-1.754,7.957,7.957,0,0,1,4.226,1.123,10.875,10.875,0,0,1,3.384,3.541l6.523-3.366a11.558,11.558,0,0,0-5.3-6.295,18.874,18.874,0,0,0-9.5-2.191q-6.909,0-11.169,3.892a13.132,13.132,0,0,0-4.261,10.17,12.274,12.274,0,0,0,2.823,8.188q2.823,3.35,11.31,7.487,0.56,0.246,1.613.771,7.5,3.543,7.5,8.066a7.258,7.258,0,0,1-2.192,5.54,8.253,8.253,0,0,1-5.908,2.069,10.818,10.818,0,0,1-6.453-1.806,9.18,9.18,0,0,1-3.471-5.242L774.5,852.27A14.093,14.093,0,0,0,779.99,860.9Z" transform="translate(-193.125 -806.719)"/>
  <path id="TRANSPORT_LOGISTICS_kopia" data-name="TRANSPORT &amp; LOGISTICS kopia" class="cls-1" d="M367.325,890.447v-2.458H354.984v2.458h4.734v15.36h2.9v-15.36h4.71Zm11.094,0.025h0.523a5.332,5.332,0,0,1,3,.6,2.426,2.426,0,0,1,.809,2.075,2.173,2.173,0,0,1-.755,1.9,5.844,5.844,0,0,1-3.055.535h-0.523v-5.111Zm0.146,7.363,5.927,7.972h3.274l-6.134-8.106a4.555,4.555,0,0,0,3.055-1.454,5,5,0,0,0,1.035-3.353,5.5,5.5,0,0,0-.451-2.24,4.235,4.235,0,0,0-1.278-1.667,4.319,4.319,0,0,0-1.673-.767,12.679,12.679,0,0,0-2.757-.231h-4.041v17.818h2.714v-7.972h0.329Zm22.486-3.091q0.17-.426.335-0.931t0.31-1.09q0.171,0.621.341,1.126t0.328,0.895l1.826,4.065h-4.966Zm9.238,11.063-8.617-18.524-8.629,18.524h3.042l2.069-4.588h7.059l2.021,4.588h3.055Zm10.327,0v-12.39q0.389,0.548.821,1.047t0.895,0.949l11.55,11.088V887.989H431.2v12.353q-0.523-.657-1-1.18t-0.937-.986L417.95,887.283v18.524h2.666Zm24.22-.572a6.229,6.229,0,0,0,3.73,1.047,6.056,6.056,0,0,0,4.309-1.491,5.242,5.242,0,0,0,1.594-4.023,4.33,4.33,0,0,0-.986-2.9,10.754,10.754,0,0,0-3.627-2.379c-0.089-.04-0.211-0.1-0.365-0.17q-3.018-1.388-3.018-2.994a2.068,2.068,0,0,1,.688-1.631,2.7,2.7,0,0,1,1.856-.609,2.758,2.758,0,0,1,1.466.39,3.765,3.765,0,0,1,1.175,1.229l2.263-1.168a4,4,0,0,0-1.837-2.185,6.551,6.551,0,0,0-3.3-.761,5.526,5.526,0,0,0-3.876,1.351,4.557,4.557,0,0,0-1.479,3.53,4.263,4.263,0,0,0,.98,2.842,12.563,12.563,0,0,0,3.925,2.6c0.13,0.057.316,0.146,0.56,0.268q2.6,1.228,2.6,2.8a2.52,2.52,0,0,1-.76,1.923,2.865,2.865,0,0,1-2.051.718,3.754,3.754,0,0,1-2.239-.627,3.18,3.18,0,0,1-1.2-1.819l-2.313,1.071A4.893,4.893,0,0,0,444.836,905.235Zm21.676-14.763h0.743a6.016,6.016,0,0,1,3.158.584,2.252,2.252,0,0,1,.858,2.008,2.039,2.039,0,0,1-.8,1.85,6.585,6.585,0,0,1-3.213.523h-0.743v-4.965Zm0.913,7.339H468a14.3,14.3,0,0,0,2.866-.207,4.37,4.37,0,0,0,1.6-.694,4.031,4.031,0,0,0,1.314-1.68,5.686,5.686,0,0,0,.475-2.336,5.569,5.569,0,0,0-.475-2.319,4.139,4.139,0,0,0-1.314-1.673,4.446,4.446,0,0,0-1.6-.7,13.9,13.9,0,0,0-2.866-.213h-4.381v17.818h2.714v-8h1.1Zm30.2,1.673a6.659,6.659,0,0,1-1.418,2.161,6.564,6.564,0,0,1-2.111,1.448,6.265,6.265,0,0,1-2.477.5A6.341,6.341,0,0,1,487,901.645a6.61,6.61,0,0,1-1.412-2.155,6.766,6.766,0,0,1-.486-2.556,6.9,6.9,0,0,1,.486-2.58A6.452,6.452,0,0,1,487,892.2a6.441,6.441,0,0,1,7.114-1.442A6.258,6.258,0,0,1,496.2,892.2a6.648,6.648,0,0,1,1.418,2.166,6.773,6.773,0,0,1,.493,2.568A6.689,6.689,0,0,1,497.621,899.484Zm2.8-6.134a9.438,9.438,0,0,0-5.161-5.069,9.966,9.966,0,0,0-7.308,0,9.433,9.433,0,0,0-3.092,2.02,9.389,9.389,0,0,0-2.069,10.236,9.066,9.066,0,0,0,2.069,3.006,9.476,9.476,0,0,0,3.085,2.027,9.645,9.645,0,0,0,3.67.712,9.511,9.511,0,0,0,3.627-.706,9.744,9.744,0,0,0,3.1-2.033A9.275,9.275,0,0,0,500.421,893.35Zm12.913-2.878h0.523a5.326,5.326,0,0,1,3,.6,2.424,2.424,0,0,1,.81,2.075,2.173,2.173,0,0,1-.755,1.9,5.844,5.844,0,0,1-3.055.535h-0.523v-5.111Zm0.146,7.363,5.927,7.972h3.274l-6.134-8.106a4.555,4.555,0,0,0,3.055-1.454,5.005,5.005,0,0,0,1.034-3.353,5.5,5.5,0,0,0-.45-2.24,4.235,4.235,0,0,0-1.278-1.667,4.319,4.319,0,0,0-1.673-.767,12.685,12.685,0,0,0-2.757-.231h-4.041v17.818h2.714v-7.972h0.329Zm27.366-7.388v-2.458H528.505v2.458h4.735v15.36h2.9v-15.36h4.71Zm25.718,2.921a2.158,2.158,0,0,1-.432-0.669,1.95,1.95,0,0,1-.14-0.73,1.675,1.675,0,0,1,.5-1.254,1.8,1.8,0,0,1,1.314-.487,1.6,1.6,0,0,1,1.205.481,1.71,1.71,0,0,1,.463,1.235,2.147,2.147,0,0,1-.341,1.187,2.978,2.978,0,0,1-1.023.931l-0.657.377Zm2.184,10.1a4.507,4.507,0,0,1-1.843.414,2.811,2.811,0,0,1-2.057-.816,2.691,2.691,0,0,1-.828-2,2.52,2.52,0,0,1,.5-1.527,6.873,6.873,0,0,1,1.783-1.515l0.45-.3,3.895,4.491A7.854,7.854,0,0,1,568.748,903.47Zm8.331,2.337-2.994-3.4a12.584,12.584,0,0,0,2.374-2.787l-1.7-1.813q-0.633.888-1.193,1.57t-1.1,1.217l-3.712-4.309a9.085,9.085,0,0,0,2.641-2.136,3.818,3.818,0,0,0,.827-2.379,3.437,3.437,0,0,0-1.18-2.745,4.725,4.725,0,0,0-3.189-1.016,4.833,4.833,0,0,0-3.305,1.126,3.657,3.657,0,0,0-1.284,2.878,4.048,4.048,0,0,0,.317,1.558,4.725,4.725,0,0,0,.913,1.412l0.718,0.779a10.859,10.859,0,0,0-3.019,2.574,4.623,4.623,0,0,0-.949,2.806,4.762,4.762,0,0,0,1.54,3.663,5.655,5.655,0,0,0,4,1.424,8.009,8.009,0,0,0,2.915-.517,9.074,9.074,0,0,0,2.6-1.6l1.436,1.692h3.347Zm31.049,0v-2.592h-6.475V887.989h-2.9v17.818h9.372Zm22.2-6.323a6.659,6.659,0,0,1-1.418,2.161,6.554,6.554,0,0,1-2.111,1.448,6.265,6.265,0,0,1-2.477.5,6.341,6.341,0,0,1-4.613-1.947,6.607,6.607,0,0,1-1.411-2.155,6.747,6.747,0,0,1-.487-2.556,6.878,6.878,0,0,1,.487-2.58,6.449,6.449,0,0,1,1.411-2.154,6.441,6.441,0,0,1,7.114-1.442,6.258,6.258,0,0,1,2.087,1.442,6.648,6.648,0,0,1,1.418,2.166,6.773,6.773,0,0,1,.493,2.568A6.689,6.689,0,0,1,630.327,899.484Zm2.8-6.134a9.43,9.43,0,0,0-5.161-5.069,9.966,9.966,0,0,0-7.308,0,9.433,9.433,0,0,0-3.092,2.02,9.175,9.175,0,0,0-2.069,3.031,9.544,9.544,0,0,0,0,7.205,9.066,9.066,0,0,0,2.069,3.006,9.47,9.47,0,0,0,3.086,2.027,9.636,9.636,0,0,0,3.669.712,9.511,9.511,0,0,0,3.627-.706,9.749,9.749,0,0,0,3.1-2.033A9.277,9.277,0,0,0,633.127,893.35Zm19.887,5.775H657.3v0.256a3.844,3.844,0,0,1-1.424,3.152,6.024,6.024,0,0,1-3.907,1.156,6.341,6.341,0,0,1-4.752-1.88,6.721,6.721,0,0,1-1.832-4.9,6.574,6.574,0,0,1,1.832-4.826,6.354,6.354,0,0,1,4.728-1.856,6.1,6.1,0,0,1,2.532.511,5.884,5.884,0,0,1,2.032,1.558l2.118-1.594a8.4,8.4,0,0,0-2.964-2.349,8.89,8.89,0,0,0-3.767-.767,10.4,10.4,0,0,0-3.748.67,8.771,8.771,0,0,0-3.055,1.947,8.6,8.6,0,0,0-2.039,3.006,9.871,9.871,0,0,0-.687,3.724,10.214,10.214,0,0,0,.675,3.725,8.836,8.836,0,0,0,1.941,3.03,8.278,8.278,0,0,0,3.006,1.948,11.058,11.058,0,0,0,3.907.645,8.384,8.384,0,0,0,6.074-2.082,7.743,7.743,0,0,0,2.154-5.842q0-.3-0.037-1.168c-0.008-.219-0.012-0.389-0.012-0.511h-7.059v2.446Zm19.078,6.682V887.989h-2.9v17.818h2.9Zm11.027-.572a6.229,6.229,0,0,0,3.73,1.047,6.056,6.056,0,0,0,4.309-1.491,5.242,5.242,0,0,0,1.594-4.023,4.33,4.33,0,0,0-.986-2.9,10.754,10.754,0,0,0-3.627-2.379c-0.089-.04-0.211-0.1-0.365-0.17q-3.018-1.388-3.018-2.994a2.068,2.068,0,0,1,.688-1.631,2.7,2.7,0,0,1,1.856-.609,2.758,2.758,0,0,1,1.466.39,3.765,3.765,0,0,1,1.175,1.229l2.264-1.168a4.01,4.01,0,0,0-1.838-2.185,6.551,6.551,0,0,0-3.3-.761,5.526,5.526,0,0,0-3.876,1.351,4.557,4.557,0,0,0-1.479,3.53,4.263,4.263,0,0,0,.98,2.842,12.563,12.563,0,0,0,3.925,2.6q0.2,0.086.56,0.268,2.6,1.228,2.605,2.8a2.521,2.521,0,0,1-.761,1.923,2.865,2.865,0,0,1-2.051.718,3.754,3.754,0,0,1-2.239-.627,3.18,3.18,0,0,1-1.2-1.819l-2.313,1.071A4.893,4.893,0,0,0,683.119,905.235Zm29.247-14.788v-2.458H700.025v2.458h4.734v15.36h2.9v-15.36h4.71Zm11.142,15.36V887.989h-2.9v17.818h2.9Zm24.6-16.406a10.514,10.514,0,0,0-2.763-1.382,9.754,9.754,0,0,0-2.994-.456,10.049,10.049,0,0,0-3.712.675,9.123,9.123,0,0,0-5.069,5.015,10.063,10.063,0,0,0,0,7.375,8.892,8.892,0,0,0,5.051,4.984,10.413,10.413,0,0,0,3.779.67,10.3,10.3,0,0,0,2.982-.414,8.558,8.558,0,0,0,2.543-1.254V901.34a9.535,9.535,0,0,1-2.744,1.692,8.2,8.2,0,0,1-3.012.56,5.947,5.947,0,0,1-4.5-1.874,7.3,7.3,0,0,1,.049-9.615,6.35,6.35,0,0,1,4.753-1.875,7.99,7.99,0,0,1,2.878.524,8.921,8.921,0,0,1,2.6,1.57Zm10.3,15.834a6.229,6.229,0,0,0,3.73,1.047,6.055,6.055,0,0,0,4.308-1.491,5.243,5.243,0,0,0,1.6-4.023,4.335,4.335,0,0,0-.986-2.9,10.754,10.754,0,0,0-3.627-2.379c-0.089-.04-0.211-0.1-0.365-0.17q-3.018-1.388-3.018-2.994a2.07,2.07,0,0,1,.687-1.631,2.7,2.7,0,0,1,1.856-.609,2.759,2.759,0,0,1,1.467.39,3.763,3.763,0,0,1,1.174,1.229l2.264-1.168a4.005,4.005,0,0,0-1.838-2.185,6.547,6.547,0,0,0-3.3-.761,5.523,5.523,0,0,0-3.876,1.351,4.557,4.557,0,0,0-1.479,3.53,4.258,4.258,0,0,0,.98,2.842,12.563,12.563,0,0,0,3.925,2.6q0.193,0.086.56,0.268,2.6,1.228,2.6,2.8a2.521,2.521,0,0,1-.761,1.923,2.862,2.862,0,0,1-2.05.718,3.757,3.757,0,0,1-2.24-.627,3.185,3.185,0,0,1-1.2-1.819l-2.312,1.071A4.893,4.893,0,0,0,758.409,905.235Z" transform="translate(-193.125 -806.719)"/>
</svg>
